<svg id="Layer_1" enable-background="new 0 0 512 512" height="512" viewBox="0 0 512 512" width="512" xmlns="http://www.w3.org/2000/svg"><g><g><path d="m509.802 78.98-13.48-13.475c3.916-8.024 3.794-17.708-.673-25.67-2.027-3.612-6.598-4.898-10.211-2.871-3.612 2.027-4.897 6.6-2.87 10.213 2.515 4.483 2.01 10.165-1.258 14.141l-39.756 48.378c-.363.442-.815.553-1.131.568-.313.019-.776-.052-1.18-.456l-16.32-16.318-19.278-19.281c-.021-.021-.045-.039-.066-.06l-1.443-1.443c-.402-.402-.47-.861-.455-1.175.014-.314.123-.763.561-1.127l48.086-39.972c3.578-2.974 8.478-3.733 12.791-1.977 3.837 1.563 8.212-.283 9.773-4.121 1.561-3.837-.283-8.214-4.12-9.775-7.408-3.015-15.606-2.63-22.584.814l-13.184-13.177c-2.93-2.929-7.679-2.928-10.606.003-2.928 2.93-2.927 7.68.003 10.608l11.652 11.648-8.915 7.41-10.903-10.905c-2.928-2.93-7.677-2.93-10.606 0-2.929 2.929-2.929 7.679 0 10.608l9.924 9.927-8.906 7.403-9.172-9.174c-2.929-2.929-7.678-2.929-10.606 0-2.929 2.929-2.929 7.679 0 10.608l8.194 8.196-.409.34c-3.573 2.97-5.745 7.335-5.958 11.977-.129 2.797.472 5.554 1.68 8.027l-85.176 85.167c-4.777-3.575-9.599-6.857-14.384-9.755-3.544-2.146-8.155-1.012-10.3 2.532s-1.012 8.156 2.531 10.302c3.79 2.295 7.616 4.865 11.427 7.645l-80.361 80.351c-5.349-1.439-10.917-2.199-16.605-2.199-16.968 0-32.921 6.61-44.919 18.61-11.998 12.001-18.606 27.957-18.606 44.928 0 16.972 6.608 32.928 18.606 44.928 1.717 1.717 3.544 3.349 5.432 4.851 3.242 2.579 7.959 2.041 10.538-1.202 2.578-3.242 2.04-7.961-1.202-10.54-1.444-1.149-2.845-2.399-4.162-3.716-9.165-9.167-14.213-21.356-14.213-34.32s5.047-25.153 14.213-34.32 21.351-14.216 34.313-14.216 25.147 5.049 34.313 14.216c9.165 9.167 14.213 21.356 14.213 34.32s-5.047 25.153-14.213 34.32c-10.278 10.281-24.48 15.38-38.968 13.994-4.121-.4-7.786 2.628-8.18 6.753-.395 4.124 2.628 7.787 6.751 8.182 2.049.196 4.091.293 6.126.293 16.789 0 32.878-6.61 44.878-18.613 11.998-12.001 18.606-27.956 18.606-44.928 0-5.684-.758-11.249-2.195-16.595l80.078-80.064c25.204 36.431 28.96 74.893 8.666 95.185-6.697 6.696-12.309 9.934-18.807 13.684-7.769 4.483-16.574 9.564-28.14 21.129-23.763 23.76-28.744 44.535-33.561 64.626-4.318 18.013-8.397 35.028-27.235 53.863-44.224 44.217-123.758 36.641-177.295-16.888-25.217-25.213-41.582-58.672-44.898-91.796-3.373-33.683 6.584-64.046 28.035-85.494 18.936-18.934 36.074-22.994 54.216-27.292 20.109-4.765 40.903-9.691 64.505-33.289 11.448-11.446 16.361-20.184 20.696-27.893 3.703-6.586 6.902-12.274 13.867-19.239 18.014-18.012 40.784-16.271 56.711-11.64 3.975 1.157 8.139-1.131 9.295-5.109s-1.131-8.141-5.108-9.297c-28.009-8.145-53.403-2.663-71.503 15.435-8.424 8.423-12.447 15.577-16.337 22.495-4.05 7.202-8.237 14.649-18.226 24.637-20.593 20.59-38.451 24.822-57.358 29.301-19.38 4.592-39.419 9.339-61.364 31.281-24.695 24.691-36.185 59.353-32.356 97.6 3.709 37.048 21.189 72.886 49.219 100.912 33.004 32.994 75.165 49.993 114.708 49.993 31.613 0 61.553-10.865 83.798-33.108 21.833-21.829 26.604-41.73 31.218-60.975 4.53-18.898 8.81-36.748 29.579-57.514 10.169-10.167 17.725-14.528 25.032-18.744 6.795-3.921 13.822-7.976 21.916-16.069 13.081-13.079 19.108-32.317 16.971-54.172-1.997-20.418-10.777-41.901-25.463-62.4l85.44-85.425c2.236 1.082 4.698 1.677 7.216 1.676.268 0 .535-.006.803-.02 4.657-.227 9.026-2.424 11.987-6.027l.277-.337 8.239 8.241c1.464 1.465 3.384 2.197 5.303 2.197s3.839-.733 5.303-2.197c2.929-2.929 2.929-7.679 0-10.608l-9.275-9.277 7.363-8.959 10.078 10.073c1.464 1.464 3.382 2.195 5.301 2.195 1.92 0 3.841-.733 5.305-2.199 2.928-2.93 2.926-7.68-.004-10.608l-11.111-11.106 7.361-8.958 11.917 11.912c1.464 1.464 3.383 2.196 5.302 2.196 1.92 0 3.84-.733 5.305-2.199 2.925-2.929 2.924-7.679-.006-10.608zm-150.115 96.837-23.521-23.526 31.026-31.022 23.522 23.527zm-41.636 41.628-23.52-23.525 31.026-31.022 23.521 23.526zm-41.635 41.628-23.519-23.524 31.026-31.022 23.52 23.525zm-35.988 12.453c-4.026-4.027-8.506-7.432-13.312-10.198l15.174-15.172 23.519 23.524-15.177 15.174c-2.768-4.813-6.174-9.298-10.204-13.328zm160.894-137.336-23.523-23.527 20.54-20.537 14.913 14.912 8.612 8.614z"/><path d="m160.71 478.304c1.607 1.365 3.577 2.046 5.546 2.046 1.97 0 3.939-.682 5.545-2.047 6.52-5.537 28.417-24.495 36.459-36.009 5.534-7.914 7.025-18.858 3.799-27.88-3.132-8.761-10.313-15.118-20.221-17.899-11.007-3.092-19.666.172-25.583 5.661-5.916-5.488-14.571-8.752-25.578-5.662-9.906 2.781-17.087 9.136-20.22 17.895-3.227 9.022-1.74 19.966 3.79 27.883 8.05 11.52 29.943 30.476 36.463 36.012zm-26.13-58.839c1.493-4.172 4.908-7.033 10.152-8.505 1.501-.422 2.87-.609 4.115-.609 5.375 0 8.478 3.496 10.207 6.79 1.41 2.686 4.169 4.354 7.2 4.354s5.79-1.668 7.201-4.354c2.13-4.056 6.344-8.422 14.33-6.18 5.244 1.472 8.659 4.334 10.151 8.506 1.59 4.448.781 10.299-1.967 14.23-.001.001-.002.002-.003.004-4.957 7.1-18.28 19.645-29.71 29.588-11.424-9.939-24.747-22.485-29.711-29.59-2.749-3.933-3.556-9.786-1.965-14.234z"/><path d="m119.419 331.714-34.532-34.539c-2.481-2.482-5.78-3.848-9.288-3.848-3.509 0-6.808 1.366-9.289 3.848l-34.532 34.539c-2.481 2.481-3.848 5.781-3.848 9.291 0 3.509 1.366 6.809 3.848 9.29l34.532 34.539c2.481 2.482 5.78 3.848 9.289 3.848s6.807-1.366 9.288-3.848l34.532-34.539c2.481-2.481 3.848-5.781 3.848-9.29-.001-3.51-1.367-6.809-3.848-9.291zm-43.821 41.194-31.897-31.903 31.897-31.903 31.896 31.903z"/></g></g></svg>